<?xml version="1.0" encoding="UTF-8"?>
<svg width="200px" height="56px" viewBox="0 0 200 56" version="1.1" xmlns="http://www.w3.org/2000/svg" xmlns:xlink="http://www.w3.org/1999/xlink">
    <title>Group</title>
    <defs>
        <polygon id="path-1" points="0 0 45.7711443 0 45.7711443 55.721393 0 55.721393"></polygon>
    </defs>
    <g id="Geosafe-Brand" stroke="none" stroke-width="1" fill="none" fill-rule="evenodd">
        <g id="01-logo-200px" transform="translate(-18, -78)">
            <g id="Group" transform="translate(18, 78)">
                <g id="Group-8" transform="translate(63.6816, 0)">
                    <path d="M19.5392089,16.1440255 C20.6141319,15.5832418 21.8342773,15.2664899 23.1259915,15.2664899 C24.4177058,15.2664899 25.6378511,15.5832418 26.7127742,16.1440255 C26.9684766,16.2768795 27.2158409,16.4244173 27.4541723,16.5845414 L28.2129415,16.1440255 L33.8140757,12.8898018 C31.1229465,10.0481248 27.3263211,8.27417437 23.1259915,8.27417437 C16.1789453,8.27417437 10.3360055,13.1268413 8.76982804,19.6401832 C8.50022873,20.7617507 8.35709095,21.9322643 8.35709095,23.136341 C8.35709095,24.3404177 8.50022873,25.5109314 8.76982804,26.6324988 L18.2620864,26.6324988 L30.2960826,19.6401832 L16.1205784,19.6401832 C16.8619765,18.14173 18.064056,16.9131802 19.5392089,16.1440255" id="Fill-1" fill="#373737"></path>
                    <g id="Group-5">
                        <mask id="mask-2" fill="white">
                            <use xlink:href="#path-1"></use>
                        </mask>
                        <g id="Clip-4"></g>
                        <path d="M29.8080798,19.5835168 L18.1284588,26.57763 L38.4602442,26.57763 C38.1953264,27.7897098 37.7924016,28.9626225 37.2590984,30.0746865 C36.4900045,31.6791361 35.4504447,33.158391 34.1639982,34.455799 C31.9864013,36.6519505 29.2900648,38.1347025 26.3530831,38.7879527 C25.227529,39.0383419 24.0666064,39.1670336 22.8855721,39.1670336 C21.7045379,39.1670336 20.5436153,39.0383419 19.4180612,38.7879527 C16.4810795,38.1347025 13.784743,36.6519505 11.6071461,34.455799 C11.4462536,34.2935356 11.2888286,34.1277751 11.1362581,33.9599164 C10.7832655,33.5731419 10.4517714,33.1723792 10.1410825,32.7583277 C9.77560681,32.2715375 9.43995176,31.7665625 9.13481079,31.2455011 C8.98154681,30.9846207 8.83591135,30.7195438 8.69859792,30.4509698 C8.63479572,30.3264746 8.57238052,30.2005806 8.51273933,30.0746865 C8.44200211,29.9271107 8.37334539,29.7781361 8.30815619,29.6284621 C8.0591889,29.0682336 7.84420323,28.4933175 7.66181215,27.9072109 L7.66181215,27.9065115 C7.52588572,27.4700788 7.40868385,27.026652 7.31090005,26.57763 C7.06262626,25.4424854 6.93502186,24.2716709 6.93502186,23.0805734 C6.93502186,21.8901753 7.06262626,20.7186614 7.31090005,19.5835168 C7.95863109,16.6215099 9.42885572,13.9021987 11.6071461,11.7060472 C13.784743,9.50989565 16.4810795,8.02644425 19.4180612,7.37319408 C20.5436153,7.12280483 21.7045379,6.99411315 22.8855721,6.99411315 C24.0666064,6.99411315 25.227529,7.12280483 26.3530831,7.37319408 C29.2900648,8.02644425 31.9864013,9.50989565 34.1639982,11.7060472 C34.3248907,11.8683106 34.4823157,12.0333717 34.6348862,12.2012304 L40.7439469,8.64402444 C40.2224333,7.98937545 39.6634705,7.36130409 39.0677521,6.76050977 C36.967134,4.6419929 34.5204583,2.97809338 31.7949947,1.81567177 C30.0411277,1.06730167 28.2206845,0.548338471 26.3530831,0.262279243 C25.2129655,0.0874264143 24.0555103,0 22.8855721,0 C21.715634,0 20.5581788,0.0874264143 19.4180612,0.262279243 C17.5504598,0.548338471 15.7300166,1.06730167 13.9761496,1.81567177 C11.250686,2.97809338 8.80401025,4.6419929 6.70269863,6.76050977 C4.60208051,8.87902664 2.95293231,11.3465498 1.79963817,14.0959356 C1.05828434,15.8640474 0.543705714,17.7000021 0.26006332,19.5835168 C0.0866877733,20.7326496 0,21.8999671 0,23.0805734 C0,24.2611797 0.0866877733,25.4284972 0.26006332,26.57763 C0.511111111,28.2478242 0.944549977,29.8802502 1.55621891,31.4616192 L1.55621891,31.4623186 C1.63458465,31.6644484 1.71572441,31.8651795 1.79963817,32.0659105 C1.95151515,32.4282056 2.11240766,32.7856048 2.28162219,33.1374087 C2.41269411,33.4115779 2.54931404,33.6822501 2.69078848,33.9494252 C2.83226293,34.2166003 2.97859189,34.4809778 3.13046887,34.7418582 C3.43422283,35.2657173 3.75808835,35.7762876 4.10275893,36.273569 C4.10275893,36.273569 4.10275893,36.2742684 4.10345243,36.2742684 C4.39611036,36.6988111 4.70402533,37.1128626 5.02650384,37.5178217 C5.53206694,38.1528872 6.07230514,38.7620745 6.64721845,39.3446841 C6.66524951,39.3635682 6.68397407,39.3824523 6.70269863,39.4013364 C6.71934268,39.4181223 6.73598673,39.4349082 6.75263079,39.4509946 L22.8855721,55.7214 L39.0677521,39.4013364 C41.1690638,37.2828195 42.818212,34.814597 43.9715061,32.0659105 C44.246133,31.4112616 44.4895522,30.7468208 44.7010704,30.0746865 C45.062385,28.931149 45.3321574,27.7638315 45.511081,26.57763 C45.6844565,25.4284972 45.7711443,24.2611797 45.7711443,23.0805734 C45.7711443,21.8999671 45.6844565,20.7326496 45.511081,19.5835168 L29.8080798,19.5835168 Z" id="Fill-3" fill="#373737" mask="url(#mask-2)"></path>
                    </g>
                    <path d="M14.7379571,30.0812038 L11.1856448,32.1599571 C13.8886271,35.7151817 18.1311069,38.0094885 22.8920811,38.0094885 C28.5267115,38.0094885 33.4350326,34.7952048 35.9253349,30.0812038 C36.309688,29.3535345 36.6370484,28.5892352 36.8997708,27.7960545 L29.1445956,27.7960545 C28.4398324,28.7456172 27.5286445,29.5303448 26.4798401,30.0812038 C25.4046244,30.6461514 24.184147,30.9652551 22.8920811,30.9652551 C21.6000153,30.9652551 20.3795378,30.6461514 19.3043222,30.0812038 C18.5599421,29.6902489 17.8850653,29.1816552 17.304018,28.5793733 L14.7379571,30.0812038 Z" id="Fill-6" fill="#373737"></path>
                </g>
                <path d="M23.3685587,38.9676376 C21.4191815,40.1865591 19.0224062,40.7960199 16.1782329,40.7960199 C11.4965319,40.7960199 7.66169154,39.1464128 4.67371173,35.8471986 C1.55790391,32.5317321 0,27.997344 0,22.2440345 C0,16.4257158 1.57388241,11.7613095 4.72164724,8.25081555 C7.86941206,4.7403216 12.0318117,2.98507463 17.2088463,2.98507463 C21.6988052,2.98507463 25.305952,4.14305006 28.0302865,6.45900093 C30.7546211,8.7749518 32.3165196,11.6637958 32.7159821,15.1255329 L25.4537531,15.1255329 C24.8945056,12.6714376 23.5283437,10.9568213 21.3552675,9.9816841 C20.1409013,9.44535864 18.7907179,9.1771959 17.3047173,9.1771959 C14.460544,9.1771959 12.1236881,10.2701622 10.2941497,12.4560948 C8.46461125,14.6420273 7.54984203,17.9290524 7.54984203,22.3171698 C7.54984203,26.7377918 8.54050913,29.866357 10.5218433,31.7028654 C12.5031775,33.5393738 14.7561463,34.457628 17.2807495,34.457628 C19.7574173,34.457628 21.786687,33.7303382 23.3685587,32.2757585 C24.9504303,30.8211789 25.9251189,28.9155982 26.2926245,26.5590167 L18.1196209,26.5590167 L18.1196209,19.6582663 L32.8358209,19.6582663 L32.8358209,39.8452611 L27.9463994,39.8452611 L27.2033991,35.35963 C25.7813124,37.0661201 24.5030323,38.2687893 23.3685587,38.9676376 Z" id="Path" fill="#373737" fill-rule="nonzero"></path>
                <polygon id="Path" fill="#373737" fill-rule="nonzero" points="168.159204 13.2678996 150.567735 13.2678996 150.567735 21.5174129 165.969197 21.5174129 165.969197 27.7471339 150.567735 27.7471339 150.567735 42.7860697 143.283582 42.7860697 143.283582 6.96517413 168.159204 6.96517413"></polygon>
                <polygon id="Path" fill="#373737" fill-rule="nonzero" points="62.2714538 25.821255 45.0504862 25.821255 45.0504862 34.3560353 64.6766169 34.3560353 64.6766169 40.7960199 37.8109453 40.7960199 37.8109453 4.97512438 63.8107582 4.97512438 63.8107582 11.3179017 45.0504862 11.3179017 45.0504862 18.9243741 62.2714538 18.9243741"></polygon>
                <path d="M128.907041,35.4226156 L115.747908,35.4226156 L113.276027,42.7860697 L105.472637,42.7860697 L118.219789,6.96517413 L126.653267,6.96517413 L139.303483,42.7860697 L131.209283,42.7860697 L128.907041,35.4226156 Z M126.822906,27.0907171 L122.363826,15.1548904 L117.759341,27.0907171 L126.822906,27.0907171 Z" id="Shape" fill="#373737" fill-rule="nonzero"></path>
                <polygon id="Path" fill="#373737" fill-rule="nonzero" points="197.594837 27.135692 180.373869 27.135692 180.373869 36.346085 200 36.346085 200 42.7860697 173.134328 42.7860697 173.134328 6.96517413 199.134141 6.96517413 199.134141 13.3079514 180.373869 13.3079514 180.373869 20.9144238 197.594837 20.9144238"></polygon>
            </g>
        </g>
    </g>
</svg>