<?xml version="1.0" encoding="UTF-8"?>
<svg width="200px" height="56px" viewBox="0 0 200 56" version="1.1" xmlns="http://www.w3.org/2000/svg" xmlns:xlink="http://www.w3.org/1999/xlink">
    <title>Group</title>
    <defs>
        <polygon id="path-1" points="0 0 45.7711443 0 45.7711443 56 0 56"></polygon>
    </defs>
    <g id="Geosafe-Brand" stroke="none" stroke-width="1" fill="none" fill-rule="evenodd">
        <g id="01-logo-200px" transform="translate(-18, -15)">
            <g id="Group" transform="translate(18, 15)">
                <g id="Group-8" transform="translate(63.6816, 0)">
                    <path d="M19.5392089,16.2247456 C20.6141319,15.661158 21.8342773,15.3428223 23.1259915,15.3428223 C24.4177058,15.3428223 25.6378511,15.661158 26.7127742,16.2247456 C26.9684766,16.3582639 27.2158409,16.5065394 27.4541723,16.6674641 L28.2129415,16.2247456 L33.8140757,12.9542509 C31.1229465,10.0983654 27.3263211,8.31554524 23.1259915,8.31554524 C16.1789453,8.31554524 10.3360055,13.1924755 8.76982804,19.7383842 C8.50022873,20.8655594 8.35709095,22.0419256 8.35709095,23.2520227 C8.35709095,24.4621198 8.50022873,25.638486 8.76982804,26.7656613 L18.2620864,26.7656613 L30.2960826,19.7383842 L16.1205784,19.7383842 C16.8619765,18.2324387 18.064056,16.9977461 19.5392089,16.2247456" id="Fill-1" fill="#FFFFFF"></path>
                    <g id="Group-5">
                        <mask id="mask-2" fill="white">
                            <use xlink:href="#path-1"></use>
                        </mask>
                        <g id="Clip-4"></g>
                        <path d="M29.8080798,19.6814344 L18.1284588,26.7105181 L38.4602442,26.7105181 C38.1953264,27.9286583 37.7924016,29.1074357 37.2590984,30.22506 C36.4900045,31.8375318 35.4504447,33.324183 34.1639982,34.628078 C31.9864013,36.8352103 29.2900648,38.325376 26.3530831,38.9818925 C25.227529,39.2335336 24.0666064,39.3628688 22.8855721,39.3628688 C21.7045379,39.3628688 20.5436153,39.2335336 19.4180612,38.9818925 C16.4810795,38.325376 13.784743,36.8352103 11.6071461,34.628078 C11.4462536,34.4650033 11.2888286,34.298414 11.1362581,34.129716 C10.7832655,33.7410076 10.4517714,33.3382411 10.1410825,32.9221194 C9.77560681,32.4328952 9.43995176,31.9253953 9.13481079,31.4017286 C8.98154681,31.1395438 8.83591135,30.8731415 8.69859792,30.6032247 C8.63479572,30.478107 8.57238052,30.3515835 8.51273933,30.22506 C8.44200211,30.0767463 8.37334539,29.9270268 8.30815619,29.7766044 C8.0591889,29.2135748 7.84420323,28.6357841 7.66181215,28.0467469 L7.66181215,28.046044 C7.52588572,27.6074292 7.40868385,27.1617853 7.31090005,26.7105181 C7.06262626,25.5696978 6.93502186,24.3930292 6.93502186,23.1959763 C6.93502186,21.9996262 7.06262626,20.8222547 7.31090005,19.6814344 C7.95863109,16.7046174 9.42885572,13.9717097 11.6071461,11.7645774 C13.784743,9.55744512 16.4810795,8.06657647 19.4180612,7.41006005 C20.5436153,7.15841885 21.7045379,7.02908371 22.8855721,7.02908371 C24.0666064,7.02908371 25.227529,7.15841885 26.3530831,7.41006005 C29.2900648,8.06657647 31.9864013,9.55744512 34.1639982,11.7645774 C34.3248907,11.9276522 34.4823157,12.0935385 34.6348862,12.2622365 L40.7439469,8.68724456 C40.2224333,8.02932232 39.6634705,7.39811061 39.0677521,6.79431232 C36.967134,4.66520286 34.5204583,2.99298384 31.7949947,1.82475013 C30.0411277,1.07263817 28.2206845,0.551080163 26.3530831,0.263590639 C25.2129655,0.0878635464 24.0555103,0 22.8855721,0 C21.715634,0 20.5581788,0.0878635464 19.4180612,0.263590639 C17.5504598,0.551080163 15.7300166,1.07263817 13.9761496,1.82475013 C11.250686,2.99298384 8.80401025,4.66520286 6.70269863,6.79431232 C4.60208051,8.92342177 2.95293231,11.4032825 1.79963817,14.1664153 C1.05828434,15.9433677 0.543705714,17.7885022 0.26006332,19.6814344 C0.0866877733,20.8363128 0,22.0094669 0,23.1959763 C0,24.3824856 0.0866877733,25.5556397 0.26006332,26.7105181 C0.511111111,28.3890633 0.944549977,30.0296514 1.55621891,31.6189273 L1.55621891,31.6196302 C1.63458465,31.8227707 1.71572441,32.0245054 1.79963817,32.2262401 C1.95151515,32.5903466 2.11240766,32.9495328 2.28162219,33.3030957 C2.41269411,33.5786358 2.54931404,33.8506613 2.69078848,34.1191723 C2.83226293,34.3876833 2.97859189,34.6533827 3.13046887,34.9155675 C3.43422283,35.4420459 3.75808835,35.955169 4.10275893,36.4549369 C4.10275893,36.4549369 4.10275893,36.4556398 4.10345243,36.4556398 C4.39611036,36.8823051 4.70402533,37.2984269 5.02650384,37.7054109 C5.53206694,38.3436517 6.07230514,38.9558848 6.64721845,39.5414075 C6.66524951,39.560386 6.68397407,39.5793646 6.70269863,39.5983431 C6.71934268,39.6152129 6.73598673,39.6320827 6.75263079,39.6482496 L22.8855721,56 L39.0677521,39.5983431 C41.1690638,37.4692336 42.818212,34.98867 43.9715061,32.2262401 C44.246133,31.5683179 44.4895522,30.9005549 44.7010704,30.22506 C45.062385,29.0758048 45.3321574,27.9026507 45.511081,26.7105181 C45.6844565,25.5556397 45.7711443,24.3824856 45.7711443,23.1959763 C45.7711443,22.0094669 45.6844565,20.8363128 45.511081,19.6814344 L29.8080798,19.6814344 Z" id="Fill-3" fill="#FFFFFF" mask="url(#mask-2)"></path>
                    </g>
                    <path d="M14.7379571,30.2316099 L11.1856448,32.3207569 C13.8886271,35.8937576 18.1311069,38.199536 22.8920811,38.199536 C28.5267115,38.199536 33.4350326,34.9691808 35.9253349,30.2316099 C36.309688,29.5003022 36.6370484,28.7321814 36.8997708,27.9350348 L29.1445956,27.9350348 C28.4398324,28.8893453 27.5286445,29.6779965 26.4798401,30.2316099 C25.4046244,30.7993821 24.184147,31.1200814 22.8920811,31.1200814 C21.6000153,31.1200814 20.3795378,30.7993821 19.3043222,30.2316099 C18.5599421,29.8387001 17.8850653,29.3275635 17.304018,28.7222701 L14.7379571,30.2316099 Z" id="Fill-6" fill="#FFFFFF"></path>
                </g>
                <path d="M23.3685587,39.1624758 C21.4191815,40.3874919 19.0224062,41 16.1782329,41 C11.4965319,41 7.66169154,39.3421449 4.67371173,36.0264346 C1.55790391,32.6943907 0,28.1373308 0,22.3552547 C0,16.5078444 1.57388241,11.8201161 4.72164724,8.29206963 C7.86941206,4.76402321 12.0318117,3 17.2088463,3 C21.6988052,3 25.305952,4.16376531 28.0302865,6.49129594 C30.7546211,8.81882656 32.3165196,11.7221148 32.7159821,15.2011605 L25.4537531,15.2011605 C24.8945056,12.7347948 23.5283437,11.0116054 21.3552675,10.0315925 C20.1409013,9.49258543 18.7907179,9.22308188 17.3047173,9.22308188 C14.460544,9.22308188 12.1236881,10.321513 10.2941497,12.5183752 C8.46461125,14.7152375 7.54984203,18.0186976 7.54984203,22.4287556 C7.54984203,26.8714808 8.54050913,30.0156888 10.5218433,31.8613798 C12.5031775,33.7070707 14.7561463,34.6299162 17.2807495,34.6299162 C19.7574173,34.6299162 21.786687,33.8989899 23.3685587,32.4371373 C24.9504303,30.9752848 25.9251189,29.0601762 26.2926245,26.6918117 L18.1196209,26.6918117 L18.1196209,19.7565576 L32.8358209,19.7565576 L32.8358209,40.0444874 L27.9463994,40.0444874 L27.2033991,35.5364281 C25.7813124,37.2514507 24.5030323,38.4601332 23.3685587,39.1624758 Z" id="Path" fill="#FFFFFF" fill-rule="nonzero"></path>
                <polygon id="Path" fill="#FFFFFF" fill-rule="nonzero" points="168.159204 13.3342391 150.567735 13.3342391 150.567735 21.625 165.969197 21.625 165.969197 27.8858696 150.567735 27.8858696 150.567735 43 143.283582 43 143.283582 7 168.159204 7"></polygon>
                <polygon id="Path" fill="#FFFFFF" fill-rule="nonzero" points="62.2714538 25.9503613 45.0504862 25.9503613 45.0504862 34.5278155 64.6766169 34.5278155 64.6766169 41 37.8109453 41 37.8109453 5 63.8107582 5 63.8107582 11.3744912 45.0504862 11.3744912 45.0504862 19.0189959 62.2714538 19.0189959"></polygon>
                <path d="M128.907041,35.5997286 L115.747908,35.5997286 L113.276027,43 L105.472637,43 L118.219789,7 L126.653267,7 L139.303483,43 L131.209283,43 L128.907041,35.5997286 Z M126.822906,27.2261707 L122.363826,15.2306649 L117.759341,27.2261707 L126.822906,27.2261707 Z" id="Shape" fill="#FFFFFF" fill-rule="nonzero"></path>
                <polygon id="Path" fill="#FFFFFF" fill-rule="nonzero" points="197.594837 27.2713704 180.373869 27.2713704 180.373869 36.5278155 200 36.5278155 200 43 173.134328 43 173.134328 7 199.134141 7 199.134141 13.3744912 180.373869 13.3744912 180.373869 21.0189959 197.594837 21.0189959"></polygon>
            </g>
        </g>
    </g>
</svg>